<?xml version="1.0" encoding="UTF-8"?>
<svg version="1.1" xmlns="http://www.w3.org/2000/svg" width="2048" height="2048">
<path d="M0 0 C2.63306338 2.87991308 2.92761328 4.27861699 3 8.1875 C1.87064184 22.57957709 -5.66554251 37.04832297 -12.21875 49.66015625 C-14.05550332 53.29741118 -15.57702515 56.93768973 -16.91796875 60.78125 C-17.9169221 63.00274914 -19.04640432 64.81490281 -20.38671875 66.83984375 C-23.29360976 71.39802731 -24.95861936 76.13127983 -26.625 81.25 C-27.19818078 82.97083328 -27.77366199 84.69090223 -28.3515625 86.41015625 C-28.76257202 87.63375854 -28.76257202 87.63375854 -29.18188477 88.88208008 C-29.92286863 90.9701465 -30.73779228 92.98803367 -31.62890625 95.015625 C-32.77301045 97.66238457 -33.61744459 100.0900501 -34.3125 102.875 C-38.1089378 117.18318267 -42.65365722 131.16937909 -47.51345825 145.14480591 C-53.3736429 162.01502187 -58.55261225 178.88255013 -63 196.1875 C-63.53495181 198.22140795 -64.0701021 200.25526371 -64.60546875 202.2890625 C-68.63773199 217.80131097 -72.02576925 233.44028788 -75 249.1875 C-75.22943298 250.39575439 -75.22943298 250.39575439 -75.46350098 251.62841797 C-85.22812782 303.30810673 -90.01752536 355.62165563 -91 408.1875 C-91.02580139 409.51962524 -91.02580139 409.51962524 -91.05212402 410.87866211 C-92.67765342 499.00119006 -83.34381643 587.46175109 -27 790.1875 C-26.20475315 792.29031619 -25.41292526 794.39442947 -24.625 796.5 C-12.6759135 827.53658831 1.67256561 857.79299829 19 886.1875 C19.4110498 886.86119629 19.82209961 887.53489258 20.24560547 888.22900391 C32.4481445 908.14091746 45.46932541 927.60483449 60.39404297 945.59375 C64 949.98212012 64 949.98212012 64 952.1875 C64.66 952.1875 65.32 952.1875 66 952.1875 C67.35097374 953.69901546 68.62927345 955.27563313 69.875 956.875 C78.0371952 967.04217184 87.05660033 976.32946954 96.25 985.5625 C96.99435303 986.31152588 97.73870605 987.06055176 98.50561523 987.83227539 C117.96086091 1007.23132326 140.39290087 1024.06873745 164.02490234 1038.00292969 C166.7907021 1039.66172578 169.48047 1041.43484886 172.1875 1043.1875 C200.17976754 1060.40805952 235.2465367 1072.78341812 267.8125 1077.1875 C272.88829098 1077.97499931 276.50405783 1079.33125181 280 1083.1875 C283.3454146 1087.94098462 284.86887725 1092.32257856 284 1098.1875 C281.86436843 1102.37662347 279.65888797 1104.47815748 275.77099609 1106.98901367 C272.24234621 1109.37695719 268.96224623 1112.10478453 265.625 1114.75 C257.89486569 1120.8205664 249.96926189 1126.48172588 241.8125 1131.95996094 C239.07843264 1133.81164341 236.38684655 1135.72318766 233.6875 1137.625 C217.91969352 1148.54718566 201.43590537 1158.74938716 184.5234375 1167.80078125 C182.06816291 1169.15004205 179.69366012 1170.58713002 177.3125 1172.0625 C171.10224611 1175.82985781 164.5900039 1178.96288909 158.07470703 1182.15966797 C156.09108976 1183.14237316 154.12013787 1184.14619918 152.15234375 1185.16015625 C142.06963226 1190.33536469 131.75287041 1194.84560998 121.30126953 1199.22265625 C119.3839534 1200.02652145 117.47074213 1200.84016851 115.55859375 1201.65625 C109.33401834 1204.29851874 103.0383376 1206.71387461 96.69213867 1209.0456543 C93.62874113 1210.17578338 90.63237122 1211.34908567 87.640625 1212.6640625 C83.18688806 1214.5277507 78.66662235 1215.99393603 74.0625 1217.4375 C73.10448486 1217.73906006 72.14646973 1218.04062012 71.15942383 1218.35131836 C16.50352183 1235.44430579 -38.63798697 1245.44803128 -96 1245.375 C-96.88941284 1245.37439575 -97.77882568 1245.3737915 -98.69519043 1245.37316895 C-194.76369202 1245.19727431 -286.67077207 1213.81902513 -362 1154.1875 C-363.39798828 1153.08148437 -363.39798828 1153.08148437 -364.82421875 1151.953125 C-370.79991353 1147.14529068 -376.48584092 1142.08412199 -382.1015625 1136.8671875 C-384.68421617 1134.47945109 -387.30175993 1132.14116356 -389.9375 1129.8125 C-398.18276029 1122.40506455 -406.17006417 1114.5783067 -413.34375 1106.12109375 C-415.25985577 1103.88413065 -417.25512856 1101.72946422 -419.25 1099.5625 C-424.32979663 1093.93167459 -428.95645131 1087.98802149 -433.59277344 1081.99316406 C-434.96644034 1080.23056164 -436.35808352 1078.48413878 -437.7578125 1076.7421875 C-455.62461228 1054.45162152 -471.53642263 1029.89149659 -484.02050781 1004.19042969 C-485.30632541 1001.56110577 -486.62684893 998.94996247 -487.94726562 996.33789062 C-497.42439796 977.55185908 -506.50386604 958.65062779 -512.859375 938.5546875 C-513.94843776 935.17828313 -513.94843776 935.17828313 -515.40625 931.98828125 C-517.60480215 926.96857811 -519.14425496 921.73273788 -520.75 916.5 C-521.09490479 915.37891846 -521.43980957 914.25783691 -521.79516602 913.1027832 C-526.15814171 898.67354998 -530.12915471 883.990138 -533 869.1875 C-533.58265625 869.42984375 -534.1653125 869.6721875 -534.765625 869.921875 C-604.85706359 898.57560776 -695.44478083 877.10380417 -762.6875 849.125 C-766.47393319 847.51331305 -770.24129465 845.86273845 -774 844.1875 C-774.84594727 843.81270508 -775.69189453 843.43791016 -776.56347656 843.05175781 C-792.08817311 836.11310646 -806.81662447 827.88283996 -820.875 818.3125 C-821.52299561 817.87244629 -822.17099121 817.43239258 -822.83862305 816.97900391 C-826.6155574 814.34551752 -829.81007712 811.53217657 -833 808.1875 C-834.13375273 807.05951096 -835.27070598 805.93473331 -836.41015625 804.8125 C-837.6276435 803.60420629 -838.84509074 802.39587228 -840.0625 801.1875 C-840.67416016 800.58421875 -841.28582031 799.9809375 -841.91601562 799.359375 C-842.51220703 798.76640625 -843.10839844 798.1734375 -843.72265625 797.5625 C-844.25640869 797.03398438 -844.79016113 796.50546875 -845.34008789 795.9609375 C-847.36031161 793.80254581 -849.17632613 791.5129136 -851 789.1875 C-849.73122039 801.84007863 -847.97836497 814.34581859 -845.8125 826.875 C-845.66038055 827.76079742 -845.50826111 828.64659485 -845.35153198 829.55923462 C-828.77482604 925.62592393 -794.67826618 1024.58634396 -666.6328125 1160.60668945 C-650.39385793 1172.05711274 -633.20929741 1181.51422524 -615.24609375 1189.953125 C-603.6979112 1195.43385332 -595.56870663 1200.62166937 -589.86328125 1212.35546875 C-588.86889149 1215.6176071 -588.87866174 1216.98649915 -590 1220.1875 C-591.7421875 1223.30078125 -591.7421875 1223.30078125 -593.875 1226.5 C-594.57367187 1227.56863281 -595.27234375 1228.63726563 -595.9921875 1229.73828125 C-596.65476562 1230.54652344 -597.31734375 1231.35476563 -598 1232.1875 C-598.99 1232.1875 -599.98 1232.1875 -601 1232.1875 C-601 1232.8475 -601 1233.5075 -601 1234.1875 C-606.3199767 1236.88134959 -611.65528653 1239.54308105 -617 1242.1875 C-617.76538086 1242.56729004 -618.53076172 1242.94708008 -619.31933594 1243.33837891 C-685.93694992 1276.22820719 -758.2380099 1297.53402039 -832 1306.1875 C-833.84803223 1306.41397217 -833.84803223 1306.41397217 -835.73339844 1306.64501953 C-932.30828899 1318.08444242 -1030.93483229 1302.05307265 -1177.15234375 1220.6015625 C-1178.92655445 1219.24370991 -1180.7112043 1217.9010546 -1182.5 1216.5625 C-1188.7042562 1211.89576538 -1194.59196213 1207.00549401 -1200.26953125 1201.70703125 C-1202.34080591 1199.79576923 -1204.43436565 1197.95604531 -1206.57421875 1196.125 C-1211.74195048 1191.61943905 -1216.58506639 1186.78849887 -1221.43017578 1181.94262695 C-1223.0196909 1180.35533666 -1224.61709657 1178.77626447 -1226.21484375 1177.19726562 C-1227.22704926 1176.18798793 -1228.23878611 1175.17823996 -1229.25 1174.16796875 C-1230.61898437 1172.80514771 -1230.61898437 1172.80514771 -1232.015625 1171.41479492 C-1234 1169.1875 -1234 1169.1875 -1234 1167.1875 C-1234.66 1167.1875 -1235.32 1167.1875 -1236 1167.1875 C-1237.375 1165.859375 -1237.375 1165.859375 -1239 1163.9375 C-1239.62648438 1163.19886719 -1240.25296875 1162.46023438 -1240.8984375 1161.69921875 C-1241.93871094 1160.45591797 -1241.93871094 1160.45591797 -1243 1159.1875 C-1244.10214844 1157.89779297 -1244.10214844 1157.89779297 -1245.2265625 1156.58203125 C-1266.04209975 1132.00342456 -1283.35950522 1105.29750901 -1299 1077.1875 C-1299.5887793 1076.14190918 -1299.5887793 1076.14190918 -1300.18945312 1075.07519531 C-1312.80421478 1052.59333174 -1322.58828409 1028.51164436 -1331 1004.1875 C-1331.3810791 1003.09211914 -1331.7621582 1001.99673828 -1332.15478516 1000.86816406 C-1352.15960514 942.75446032 -1361.26036549 881.43750866 -1361.1875 820.0625 C-1361.18689575 819.10906708 -1361.1862915 818.15563416 -1361.18566895 817.17330933 C-1361.15546226 799.44585357 -1360.5527016 781.8525778 -1359 764.1875 C-1358.93683594 763.46727661 -1358.87367188 762.74705322 -1358.80859375 762.00500488 C-1352.04302327 685.98768508 -1332.81840801 611.42254827 -1303 541.1875 C-1302.52046875 540.05779785 -1302.0409375 538.9280957 -1301.546875 537.76416016 C-1296.4430697 525.81926636 -1291.10884696 514.03541488 -1285.16650391 502.48535156 C-1283.77765616 499.74951334 -1282.42559218 496.99672766 -1281.07421875 494.2421875 C-1273.86766679 479.59076878 -1266.2115099 465.29856525 -1258 451.1875 C-1257.195625 449.7955542 -1257.195625 449.7955542 -1256.375 448.37548828 C-1248.65745725 435.03443556 -1240.51395455 422.03301871 -1232 409.1875 C-1231.08037832 407.78929319 -1230.16109092 406.39086645 -1229.2421875 404.9921875 C-1225.05413623 398.638392 -1220.77009174 392.37399526 -1216.25 386.25 C-1214.48269164 383.84449695 -1212.73567934 381.42821972 -1211 379 C-1204.22851977 369.53532892 -1197.30003902 360.25055796 -1190 351.1875 C-1189.484375 350.54570801 -1188.96875 349.90391602 -1188.4375 349.24267578 C-1178.91284272 337.40267964 -1169.2593368 325.69093079 -1159.0390625 314.44140625 C-1157.20913753 312.4186731 -1155.41118272 310.37380565 -1153.625 308.3125 C-1145.77028798 299.32800064 -1137.64515957 290.70728349 -1129.12695312 282.35131836 C-1125.83748332 279.10763253 -1122.86691587 275.81850578 -1120 272.1875 C-1118.88526692 271.15294494 -1117.7387426 270.15154739 -1116.5625 269.1875 C-1112.67310686 265.87242847 -1109.08794843 262.32026558 -1105.5 258.6875 C-1092.67421825 245.74557275 -1092.67421825 245.74557275 -1088 244.1875 C-1088 243.5275 -1088 242.8675 -1088 242.1875 C-1086.42713316 240.77311594 -1084.78860004 239.43145599 -1083.125 238.125 C-1079.36646047 235.12295633 -1075.72126006 232.07578924 -1072.1875 228.8125 C-1066.62935138 223.75484817 -1060.73675745 219.18046196 -1054.796875 214.5859375 C-1053.06269761 213.2362951 -1051.34171096 211.87176436 -1049.625 210.5 C-1041.72942448 204.20235223 -1033.62957677 198.23645939 -1025.4140625 192.36328125 C-1022.71741503 190.43321406 -1020.04261995 188.48177229 -1017.3984375 186.48046875 C-1005.73139025 177.67122968 -993.36867234 169.96521449 -981 162.1875 C-979.2004993 161.04690898 -977.40101886 159.90628598 -975.6015625 158.765625 C-915.82864262 121.0977722 -849.60679606 91.49012713 -781 74.1875 C-779.87352051 73.90277832 -778.74704102 73.61805664 -777.58642578 73.32470703 C-693.71809526 52.28178901 -693.71809526 52.28178901 -673 64.1875 C-669.13877766 67.22670431 -667.23644941 69.74253138 -666.4375 74.625 C-667.51192495 81.42969137 -670.34580358 87.27707474 -673.9375 93.125 C-674.32446045 93.76195801 -674.7114209 94.39891602 -675.11010742 95.05517578 C-680.46161465 103.72493322 -686.48480735 111.93897253 -692.44873047 120.19238281 C-710.22808003 144.83811352 -726.03669269 170.86381739 -740.56152344 197.54589844 C-741.61364083 199.47799453 -742.66950553 201.40805135 -743.72753906 203.33691406 C-751.73172148 217.94798806 -759.28585994 232.62317938 -765.98144531 247.89208984 C-767.38780762 251.06146147 -768.88035296 254.1837532 -770.375 257.3125 C-792.98531439 305.71768011 -810.19495591 356.62870611 -824 408.1875 C-824.20991577 408.97106873 -824.41983154 409.75463745 -824.6361084 410.56195068 C-831.04275165 434.57142899 -836.31452538 458.78719734 -841 483.1875 C-841.14179687 483.92442078 -841.28359375 484.66134155 -841.4296875 485.42059326 C-847.30708205 516.08208862 -851.35763662 546.91943541 -854.25 578 C-854.33308411 578.89161835 -854.41616821 579.78323669 -854.50177002 580.70187378 C-855.56079533 592.1870685 -856.39815815 603.66933099 -857 615.1875 C-839.95993565 620.55796877 -822.78371034 623.59472159 -804.96875 624.73046875 C-800.48100109 625.02181159 -796.0808333 625.58582407 -791.62890625 626.21875 C-781.58736271 627.56534292 -771.553314 627.53849084 -761.4375 627.5 C-760.4392218 627.49817719 -759.4409436 627.49635437 -758.41241455 627.49447632 C-692.70568498 627.29447269 -590.04604644 622.68180278 -540.39453125 574.66796875 C-538.94655514 573.16802613 -537.4986249 571.66803923 -536.05078125 570.16796875 C-535.19033203 569.28044922 -535.19033203 569.28044922 -534.3125 568.375 C-533.73113281 567.77042969 -533.14976562 567.16585937 -532.55078125 566.54296875 C-531 565.1875 -531 565.1875 -529 565.1875 C-528.90058105 564.49527344 -528.80116211 563.80304687 -528.69873047 563.08984375 C-527.49746251 555.28866833 -525.7209562 547.73805656 -523.65087891 540.12402344 C-523.12602801 538.19128558 -522.61121655 536.25607743 -522.09765625 534.3203125 C-520.23253299 527.384607 -518.18889053 520.55645004 -515.8671875 513.76025391 C-514.8012443 510.59783569 -513.89580731 507.4018674 -513 504.1875 C-499.84473166 459.89599845 -481.76536913 417.40145774 -461 376.1875 C-460.44328613 375.07826172 -459.88657227 373.96902344 -459.31298828 372.82617188 C-451.802076 357.93137182 -443.56461643 343.49895887 -435 329.1875 C-434.50081055 328.3531543 -434.00162109 327.51880859 -433.48730469 326.65917969 C-426.89494741 315.68090509 -420.02517311 304.89302112 -413 294.1875 C-412.58927246 293.55779297 -412.17854492 292.92808594 -411.75537109 292.27929688 C-403.27484602 279.28698218 -394.35678671 266.53412375 -384.72265625 254.3671875 C-382.96682454 252.14552289 -381.24011648 249.90269386 -379.51806641 247.65478516 C-377.35157161 244.82758035 -375.17568795 242.00763223 -373 239.1875 C-372.54544434 238.59710937 -372.09088867 238.00671875 -371.62255859 237.3984375 C-366.35479714 230.5693788 -361.00210018 223.94000143 -355.15625 217.58984375 C-352.96458105 215.14803867 -350.91890626 212.6288226 -348.875 210.0625 C-344.1976943 204.26164222 -339.10934141 198.88052297 -333.96435547 193.49365234 C-333.02293701 192.50486084 -333.02293701 192.50486084 -332.0625 191.49609375 C-331.49660156 190.90626709 -330.93070313 190.31644043 -330.34765625 189.70874023 C-328.90435404 188.2115037 -328.90435404 188.2115037 -328 186.1875 C-327.34 186.1875 -326.68 186.1875 -326 186.1875 C-325.7525 185.56875 -325.505 184.95 -325.25 184.3125 C-323.76259631 181.78391373 -322.56321991 181.46910996 -320 180.1875 C-319.73074707 179.61362549 -319.46149414 179.03975098 -319.18408203 178.44848633 C-317.60013929 175.42397216 -315.47316106 173.41917765 -313.0546875 171.01171875 C-312.56598175 170.52347122 -312.077276 170.03522369 -311.57376099 169.53218079 C-310.53884333 168.50027802 -309.50150249 167.47080056 -308.46191406 166.44360352 C-306.89599331 164.89575108 -305.33803642 163.3402365 -303.78125 161.78320312 C-298.91905456 156.93845756 -294.00476673 152.19882743 -288.78808594 147.73266602 C-285.83725398 145.18271852 -283.02397241 142.48804652 -280.1875 139.8125 C-275.19934863 135.14515366 -270.10401119 130.69805143 -264.76953125 126.42578125 C-262.23211026 124.37508699 -259.7459813 122.27894242 -257.26855469 120.15698242 C-250.36425788 114.24648591 -243.25753541 108.65752395 -236 103.1875 C-235.35063477 102.69572266 -234.70126953 102.20394531 -234.03222656 101.69726562 C-226.12316803 95.70817332 -218.18093085 89.80210055 -210 84.1875 C-208.83421996 83.37299014 -207.66889198 82.55783305 -206.50390625 81.7421875 C-192.35259512 71.87051398 -177.75530344 62.76337196 -162.94204712 53.92245483 C-161.24855394 52.91144886 -159.55721856 51.89683114 -157.8659668 50.88208008 C-151.23590693 46.95170315 -144.51052384 43.3726879 -137.59082031 39.97998047 C-133.86445835 38.14100823 -130.21819087 36.16537915 -126.56640625 34.18359375 C-119.17126035 30.19630456 -111.60867166 26.6695931 -103.9375 23.25 C-103.27145752 22.9513504 -102.60541504 22.65270081 -101.91918945 22.34500122 C-85.21838318 14.85852719 -68.48150417 7.66478351 -51 2.1875 C-49.66083217 1.74276647 -48.32230893 1.29608817 -46.984375 0.84765625 C-31.70190845 -4.20957632 -14.68076602 -8.86962947 0 0 Z " fill="#EB2606" transform="translate(1618,335.8125)"/>
<path d="M0 0 C2.63306338 2.87991308 2.92761328 4.27861699 3 8.1875 C1.87064184 22.57957709 -5.66554251 37.04832297 -12.21875 49.66015625 C-14.05550332 53.29741118 -15.57702515 56.93768973 -16.91796875 60.78125 C-17.9169221 63.00274914 -19.04640432 64.81490281 -20.38671875 66.83984375 C-23.29360976 71.39802731 -24.95861936 76.13127983 -26.625 81.25 C-27.19818078 82.97083328 -27.77366199 84.69090223 -28.3515625 86.41015625 C-28.76257202 87.63375854 -28.76257202 87.63375854 -29.18188477 88.88208008 C-29.92286863 90.9701465 -30.73779228 92.98803367 -31.62890625 95.015625 C-32.77301045 97.66238457 -33.61744459 100.0900501 -34.3125 102.875 C-38.1089378 117.18318267 -42.65365722 131.16937909 -47.51345825 145.14480591 C-53.3736429 162.01502187 -58.55261225 178.88255013 -63 196.1875 C-63.53495181 198.22140795 -64.0701021 200.25526371 -64.60546875 202.2890625 C-68.63773199 217.80131097 -72.02576925 233.44028788 -75 249.1875 C-75.15295532 249.99300293 -75.30591064 250.79850586 -75.46350098 251.62841797 C-85.22812782 303.30810673 -90.01752536 355.62165563 -91 408.1875 C-91.01720093 409.0755835 -91.03440186 409.96366699 -91.05212402 410.87866211 C-92.67765342 499.00119006 -83.34381643 587.46175109 -27 790.1875 C-26.20475315 792.29031619 -25.41292526 794.39442947 -24.625 796.5 C-12.6759135 827.53658831 1.67256561 857.79299829 19 886.1875 C19.4110498 886.86119629 19.82209961 887.53489258 20.24560547 888.22900391 C32.4481445 908.14091746 45.46932541 927.60483449 60.39404297 945.59375 C64 949.98212012 64 949.98212012 64 952.1875 C64.66 952.1875 65.32 952.1875 66 952.1875 C67.35097374 953.69901546 68.62927345 955.27563313 69.875 956.875 C78.0371952 967.04217184 87.05660033 976.32946954 96.25 985.5625 C96.99435303 986.31152588 97.73870605 987.06055176 98.50561523 987.83227539 C117.96086091 1007.23132326 140.39290087 1024.06873745 164.02490234 1038.00292969 C166.7907021 1039.66172578 169.48047 1041.43484886 172.1875 1043.1875 C200.17976754 1060.40805952 235.2465367 1072.78341812 267.8125 1077.1875 C272.88829098 1077.97499931 276.50405783 1079.33125181 280 1083.1875 C283.3454146 1087.94098462 284.86887725 1092.32257856 284 1098.1875 C281.86436843 1102.37662347 279.65888797 1104.47815748 275.77099609 1106.98901367 C272.24234621 1109.37695719 268.96224623 1112.10478453 265.625 1114.75 C257.89486569 1120.8205664 249.96926189 1126.48172588 241.8125 1131.95996094 C239.07843264 1133.81164341 236.38684655 1135.72318766 233.6875 1137.625 C217.91969352 1148.54718566 201.43590537 1158.74938716 184.5234375 1167.80078125 C182.06816291 1169.15004205 179.69366012 1170.58713002 177.3125 1172.0625 C171.10224611 1175.82985781 164.5900039 1178.96288909 158.07470703 1182.15966797 C156.09108976 1183.14237316 154.12013787 1184.14619918 152.15234375 1185.16015625 C142.06963226 1190.33536469 131.75287041 1194.84560998 121.30126953 1199.22265625 C119.3839534 1200.02652145 117.47074213 1200.84016851 115.55859375 1201.65625 C109.33401834 1204.29851874 103.0383376 1206.71387461 96.69213867 1209.0456543 C93.62874113 1210.17578338 90.63237122 1211.34908567 87.640625 1212.6640625 C83.18688806 1214.5277507 78.66662235 1215.99393603 74.0625 1217.4375 C73.10448486 1217.73906006 72.14646973 1218.04062012 71.15942383 1218.35131836 C16.50352183 1235.44430579 -38.63798697 1245.44803128 -96 1245.375 C-96.88941284 1245.37439575 -97.77882568 1245.3737915 -98.69519043 1245.37316895 C-194.76369202 1245.19727431 -286.67077207 1213.81902513 -362 1154.1875 C-362.93199219 1153.45015625 -363.86398437 1152.7128125 -364.82421875 1151.953125 C-370.79991353 1147.14529068 -376.48584092 1142.08412199 -382.1015625 1136.8671875 C-384.68421617 1134.47945109 -387.30175993 1132.14116356 -389.9375 1129.8125 C-398.18276029 1122.40506455 -406.17006417 1114.5783067 -413.34375 1106.12109375 C-415.25985577 1103.88413065 -417.25512856 1101.72946422 -419.25 1099.5625 C-424.32979663 1093.93167459 -428.95645131 1087.98802149 -433.59277344 1081.99316406 C-434.96644034 1080.23056164 -436.35808352 1078.48413878 -437.7578125 1076.7421875 C-455.62461228 1054.45162152 -471.53642263 1029.89149659 -484.02050781 1004.19042969 C-485.30632541 1001.56110577 -486.62684893 998.94996247 -487.94726562 996.33789062 C-497.42439796 977.55185908 -506.50386604 958.65062779 -512.859375 938.5546875 C-513.94843776 935.17828313 -513.94843776 935.17828313 -515.40625 931.98828125 C-523.37174552 913.80157466 -527.43835485 893.43345163 -532 874.1875 C-532.41427246 872.47530273 -532.41427246 872.47530273 -532.83691406 870.72851562 C-536.02002963 857.52253203 -538.65054368 844.46513614 -539.97558594 830.93286133 C-540.50338063 825.65986809 -541.30259477 820.60001489 -542.48046875 815.4296875 C-544.16349488 807.87234727 -544.97770572 800.3302762 -545.625 792.625 C-545.71788803 791.56209747 -545.71788803 791.56209747 -545.81265259 790.47772217 C-548.41654063 760.53154987 -548.36648242 730.52505359 -547.5625 700.5 C-547.5429425 699.75249481 -547.52338501 699.00498962 -547.50323486 698.23483276 C-547.13714329 684.58917369 -546.73942957 670.99711175 -544.46484375 657.515625 C-543.94830405 653.8173744 -543.74166101 650.16697414 -543.5625 646.4375 C-543.24640142 640.0196942 -542.35267287 633.85503234 -541.15649414 627.54614258 C-540.2527025 622.75094971 -539.55621038 617.97223084 -539 613.125 C-537.50928788 600.63258604 -534.90727835 588.42434954 -532 576.1875 C-531.6212903 574.52167236 -531.24588041 572.85508823 -530.875 571.1875 C-530.72804688 570.5275 -530.58109375 569.8675 -530.4296875 569.1875 C-530.1342593 567.81241602 -529.85570829 566.43363184 -529.59130859 565.05224609 C-528.35854719 559.07981738 -526.82254776 553.17159024 -525.35400391 547.25341797 C-524.95592196 545.64467775 -524.56035309 544.03531329 -524.16748047 542.42529297 C-521.85905861 532.96720274 -519.3247557 523.69458185 -516.12207031 514.49755859 C-514.96594841 511.08704929 -513.96959551 507.65518224 -513 504.1875 C-499.86597657 459.89439869 -481.76258842 417.39593875 -461 376.1875 C-460.1649292 374.52364258 -460.1649292 374.52364258 -459.31298828 372.82617188 C-451.802076 357.93137182 -443.56461643 343.49895887 -435 329.1875 C-434.25121582 327.93598145 -434.25121582 327.93598145 -433.48730469 326.65917969 C-426.89494741 315.68090509 -420.02517311 304.89302112 -413 294.1875 C-412.58927246 293.55779297 -412.17854492 292.92808594 -411.75537109 292.27929688 C-403.27484602 279.28698218 -394.35678671 266.53412375 -384.72265625 254.3671875 C-382.96682454 252.14552289 -381.24011648 249.90269386 -379.51806641 247.65478516 C-377.35157161 244.82758035 -375.17568795 242.00763223 -373 239.1875 C-372.54544434 238.59710937 -372.09088867 238.00671875 -371.62255859 237.3984375 C-366.35479714 230.5693788 -361.00210018 223.94000143 -355.15625 217.58984375 C-352.96458105 215.14803867 -350.91890626 212.6288226 -348.875 210.0625 C-344.1976943 204.26164222 -339.10934141 198.88052297 -333.96435547 193.49365234 C-333.33674316 192.83445801 -332.70913086 192.17526367 -332.0625 191.49609375 C-331.21365234 190.61135376 -331.21365234 190.61135376 -330.34765625 189.70874023 C-328.90435404 188.2115037 -328.90435404 188.2115037 -328 186.1875 C-327.34 186.1875 -326.68 186.1875 -326 186.1875 C-325.7525 185.56875 -325.505 184.95 -325.25 184.3125 C-323.76259631 181.78391373 -322.56321991 181.46910996 -320 180.1875 C-319.73074707 179.61362549 -319.46149414 179.03975098 -319.18408203 178.44848633 C-317.60013929 175.42397216 -315.47316106 173.41917765 -313.0546875 171.01171875 C-312.56598175 170.52347122 -312.077276 170.03522369 -311.57376099 169.53218079 C-310.53884333 168.50027802 -309.50150249 167.47080056 -308.46191406 166.44360352 C-306.89599331 164.89575108 -305.33803642 163.3402365 -303.78125 161.78320312 C-298.91905456 156.93845756 -294.00476673 152.19882743 -288.78808594 147.73266602 C-285.83725398 145.18271852 -283.02397241 142.48804652 -280.1875 139.8125 C-275.19934863 135.14515366 -270.10401119 130.69805143 -264.76953125 126.42578125 C-262.23211026 124.37508699 -259.7459813 122.27894242 -257.26855469 120.15698242 C-250.36425788 114.24648591 -243.25753541 108.65752395 -236 103.1875 C-235.02595215 102.44983398 -235.02595215 102.44983398 -234.03222656 101.69726562 C-226.12316803 95.70817332 -218.18093085 89.80210055 -210 84.1875 C-208.83421996 83.37299014 -207.66889198 82.55783305 -206.50390625 81.7421875 C-192.35259512 71.87051398 -177.75530344 62.76337196 -162.94204712 53.92245483 C-161.24855394 52.91144886 -159.55721856 51.89683114 -157.8659668 50.88208008 C-151.23590693 46.95170315 -144.51052384 43.3726879 -137.59082031 39.97998047 C-133.86445835 38.14100823 -130.21819087 36.16537915 -126.56640625 34.18359375 C-119.17126035 30.19630456 -111.60867166 26.6695931 -103.9375 23.25 C-103.27145752 22.9513504 -102.60541504 22.65270081 -101.91918945 22.34500122 C-85.21838318 14.85852719 -68.48150417 7.66478351 -51 2.1875 C-49.66083217 1.74276647 -48.32230893 1.29608817 -46.984375 0.84765625 C-31.70190845 -4.20957632 -14.68076602 -8.86962947 0 0 Z " fill="#EB6800" transform="translate(1618,335.8125)"/>
<path d="M0 0 C0.99 0.33 1.98 0.66 3 1 C2.69964844 1.66902344 2.39929687 2.33804688 2.08984375 3.02734375 C0.82116617 6.48778689 0.17760669 9.94447964 -0.4375 13.5625 C-1.50255063 19.54290616 -2.79781926 25.4038967 -4.3125 31.2890625 C-6.32511764 39.22517978 -7.46280573 47.18863192 -8.4296875 55.3125 C-8.84368078 58.77498927 -9.29293336 62.23147544 -9.7578125 65.6875 C-11.62218184 79.49727967 -11.62218184 79.49727967 -12.7890625 93.37890625 C-13 96 -13 96 -13.48022461 98.70800781 C-15.37433505 110.70433713 -15.2451738 123.18400503 -15.5625 135.3125 C-15.58334656 136.09102325 -15.60419312 136.86954651 -15.62567139 137.67166138 C-16.41645796 167.64338772 -16.23665209 197.55279286 -13.625 227.4375 C-13.56782806 228.11806458 -13.51065613 228.79862915 -13.45175171 229.49981689 C-12.74876618 237.73000712 -11.53391737 245.62382743 -9.70019531 253.67504883 C-8.62320281 258.78926113 -8.09528044 263.93081084 -7.5625 269.125 C-6.57110675 278.17249325 -5.18382528 287.0149035 -3.18188477 295.89501953 C-1.90211735 301.70635206 -1.90211735 301.70635206 -3 305 C-4.06154297 305.17595703 -4.06154297 305.17595703 -5.14453125 305.35546875 C-8.18936587 306.04274332 -10.81300715 307.09882524 -13.6875 308.3125 C-81.22128892 334.53774239 -174.15549622 308.92533078 -237.5234375 281.4296875 C-239.35029038 280.62280082 -241.17586374 279.81300951 -243 279 C-243.84594727 278.62520508 -244.69189453 278.25041016 -245.56347656 277.86425781 C-261.08817311 270.92560646 -275.81662447 262.69533996 -289.875 253.125 C-290.52299561 252.68494629 -291.17099121 252.24489258 -291.83862305 251.79150391 C-295.61533547 249.15817226 -298.81273913 246.34712348 -302 243 C-303.12228508 241.87229162 -304.24749792 240.74749235 -305.375 239.625 C-307.79166667 237.20833333 -310.20833333 234.79166667 -312.625 232.375 C-313.19734375 231.80394531 -313.7696875 231.23289062 -314.359375 230.64453125 C-315.41672927 229.58465947 -316.46921697 228.51989913 -317.515625 227.44921875 C-318.65967528 226.28215597 -319.82726884 225.13823907 -321 224 C-321.33 224 -321.66 224 -322 224 C-322.33968421 220.18803848 -322.67057595 216.3753608 -323 212.5625 C-323.09539063 211.49322266 -323.19078125 210.42394531 -323.2890625 209.32226562 C-324.02909775 200.67971115 -324.34948465 192.44639254 -323.12109375 183.84765625 C-322.83761568 181.90414307 -322.83761568 181.90414307 -324 180 C-324.17569825 177.55506637 -324.29489003 175.13283955 -324.37304688 172.68432617 C-324.40085865 171.92647072 -324.42867043 171.16861526 -324.45732498 170.38779449 C-324.54899662 167.85632501 -324.6339316 165.32467644 -324.71875 162.79296875 C-324.78166134 161.01071484 -324.84492045 159.22847318 -324.9085083 157.44624329 C-325.07721374 152.67748486 -325.23963012 147.90853264 -325.4002533 143.13949585 C-325.49960335 140.19923886 -325.60045073 137.25903698 -325.70178223 134.31884766 C-326.4684251 112.04856309 -327.22329636 89.77745904 -327.75 67.5 C-327.77296143 66.59551117 -327.79592285 65.69102234 -327.81958008 64.75912476 C-327.88085417 62.2874209 -327.93434306 59.81570373 -327.984375 57.34375 C-328.01241211 56.02568359 -328.04044922 54.70761719 -328.06933594 53.34960938 C-328.00844628 50.40803851 -327.6991252 47.84828785 -327 45 C-326.67 45 -326.34 45 -326 45 C-326 46.65 -326 48.3 -326 50 C-308.95993565 55.37046877 -291.78371034 58.40722159 -273.96875 59.54296875 C-269.48100109 59.83431159 -265.0808333 60.39832407 -260.62890625 61.03125 C-250.58736271 62.37784292 -240.553314 62.35099084 -230.4375 62.3125 C-229.4392218 62.31067719 -228.4409436 62.30885437 -227.41241455 62.30697632 C-161.781549 62.10720361 -58.9400477 57.52831695 -9.40234375 9.48046875 C-8.60957031 8.66191406 -7.81679687 7.84335937 -7 7 C-4.66666667 4.66666667 -2.33333333 2.33333333 0 0 Z " fill="#EA4502" transform="translate(1087,901)"/>
<path d="M0 0 C0 3 0 3 -1.57429504 4.94851685 C-2.31137192 5.68496429 -3.04844879 6.42141174 -3.80786133 7.18017578 C-5.05464409 8.43630173 -5.05464409 8.43630173 -6.32661438 9.71780396 C-7.23590195 10.61788177 -8.14518951 11.51795959 -9.08203125 12.4453125 C-10.00715012 13.37092987 -10.93226898 14.29654724 -11.88542175 15.25021362 C-13.84544604 17.21014814 -15.81054123 19.16480627 -17.77954102 21.11572266 C-20.30340866 23.6169187 -22.81607158 26.12901869 -25.32524586 28.64494514 C-27.71813245 31.04197713 -30.11903482 33.43090072 -32.51953125 35.8203125 C-33.42274612 36.72443878 -34.325961 37.62856506 -35.25654602 38.56008911 C-36.09719101 39.39120209 -36.937836 40.22231506 -37.80395508 41.07861328 C-38.54341873 41.81346954 -39.28288239 42.54832581 -40.04475403 43.30545044 C-42 45 -42 45 -45 46 C-45 45.34 -45 44.68 -45 44 C-44.34 44 -43.68 44 -43 44 C-42.62875 43.071875 -42.62875 43.071875 -42.25 42.125 C-40.76259631 39.59641373 -39.56321991 39.28160996 -37 38 C-36.59612061 37.13918823 -36.59612061 37.13918823 -36.18408203 36.26098633 C-34.60013929 33.23647216 -32.47316106 31.23167765 -30.0546875 28.82421875 C-29.56598175 28.33597122 -29.077276 27.84772369 -28.57376099 27.34468079 C-27.53884333 26.31277802 -26.50150249 25.28330056 -25.46191406 24.25610352 C-23.89599331 22.70825108 -22.33803642 21.1527365 -20.78125 19.59570312 C-15.85302235 14.68544553 -10.87825677 9.86961618 -5.57666016 5.35839844 C-3.61599305 3.66915227 -1.7917465 1.8664026 0 0 Z " fill="#EE812C" transform="translate(1335,478)"/>
</svg>
